<svg class="gnt_n_lg_svg" id="gnt_svg_lg" fill="#009BFF" preserveAspectRatio="xMinYMid meet" viewBox="0 0 226 36.33"><path d="M15.36 35.3l-.43-3.2c-1.59 2.54-4.01 3.82-7.25 3.82a8.13 8.13 0 01-3.89-.93A6.93 6.93 0 010 28.67a7.3 7.3 0 013.17-6.3c2.11-1.49 4.9-2.24 8.37-2.24 1.08 0 2.23.1 3.43.29a3.59 3.59 0 00-1.55-2.74 5.74 5.74 0 00-3.32-.93c-1.14 0-2.3.21-3.46.64-1.16.43-2.27.95-3.32 1.55L.51 13.6a20.58 20.58 0 015.15-2.36c1.84-.56 3.69-.83 5.53-.83 2.23 0 4.23.38 6.01 1.14a9.21 9.21 0 014.2 3.48 10.6 10.6 0 011.53 5.92V35.3h-7.57zm-7.3-7.87c0 .73.27 1.33.81 1.79.54.46 1.24.69 2.1.69a3.98 3.98 0 004.06-4.1V25c-.86-.16-1.77-.24-2.72-.24-1.21 0-2.22.21-3.03.62a2.12 2.12 0 00-1.22 2.05zm40.13 1.67v6.2H26.67v-5.2l11.07-12.88H27.39v-6.2H47.8v5.2L36.83 29.1h11.36z"></path><path fill="#404040" d="M63.45 35.92a13.4 13.4 0 01-6.61-1.6 11.84 11.84 0 01-4.56-4.46 13.04 13.04 0 01-1.67-6.68c0-2.54.56-4.77 1.67-6.68a11.77 11.77 0 014.56-4.46 13.36 13.36 0 016.61-1.6c2.19 0 4.12.41 5.77 1.22 1.65.81 3.12 2.11 4.39 3.89l-5.49 4.01a5.5 5.5 0 00-1.74-1.65 4.42 4.42 0 00-2.31-.64 4.6 4.6 0 00-3.58 1.6c-.95 1.07-1.43 2.5-1.43 4.32s.48 3.25 1.43 4.32a4.59 4.59 0 003.58 1.6c.83 0 1.6-.21 2.31-.64a5.3 5.3 0 001.74-1.65l5.49 4.01a11.89 11.89 0 01-4.39 3.89c-1.65.79-3.58 1.2-5.77 1.2zm35.94-3.1a19.24 19.24 0 01-10.54 3.1c-2.89 0-5.37-.53-7.42-1.6a11.24 11.24 0 01-4.72-4.46 12.94 12.94 0 01-1.65-6.58c0-2.51.54-4.74 1.62-6.68a11.83 11.83 0 014.48-4.56 13.13 13.13 0 016.68-1.65c2.48 0 4.67.53 6.56 1.6a11.48 11.48 0 014.44 4.44 13.28 13.28 0 011.53 7.75c-.05.38-.1.78-.17 1.19H83.27c.76 2.8 2.85 4.2 6.25 4.2 1.53 0 2.88-.24 4.06-.72 1.18-.48 2.16-.95 2.96-1.43l2.85 5.4zM88.04 16.41c-2.7 0-4.33 1.43-4.87 4.29h9.25c-.22-1.56-.76-2.66-1.6-3.32a4.46 4.46 0 00-2.78-.97zm24.78 5.49v13.4h-8.3V11.02h7.58l.43 3.2a9.01 9.01 0 013.1-2.77 8.56 8.56 0 014.2-1.05c2.64 0 4.75.86 6.34 2.58 1.59 1.72 2.39 4.18 2.39 7.39V35.3h-8.3V21.32c0-1.43-.32-2.49-.95-3.17-.64-.68-1.53-1.03-2.67-1.03s-2.07.37-2.77 1.1c-.7.73-1.05 1.96-1.05 3.68zm38.38 11.83a13.29 13.29 0 01-7.4 2.2c-2.61 0-4.68-.75-6.23-2.27-1.54-1.51-2.31-3.54-2.31-6.08V17.22h-3.96v-6.2h4.34l1.05-6.77h6.87v6.77h6.34v6.2h-6.34v9.3c0 .83.25 1.47.74 1.93.49.46 1.15.69 1.98.69.41 0 .83-.08 1.26-.24a8.5 8.5 0 001.22-.57l2.44 5.4zm11.76-7.83v9.4h-8.3V11.02h7.58l.52 4.05a6.83 6.83 0 016.53-4.39c.86 0 1.51.11 1.96.33v7.58a6.26 6.26 0 00-1.17-.29c-.43-.06-.91-.1-1.45-.1-1.65 0-3.01.61-4.08 1.84-1.06 1.24-1.59 3.19-1.59 5.86zm25.79 9.4l-.43-3.2c-1.59 2.54-4.01 3.82-7.25 3.82a8.13 8.13 0 01-3.89-.93 6.94 6.94 0 01-3.8-6.32 7.3 7.3 0 013.17-6.3c2.11-1.49 4.91-2.24 8.37-2.24 1.08 0 2.23.1 3.43.29a3.59 3.59 0 00-1.55-2.74 5.74 5.74 0 00-3.32-.93c-1.14 0-2.3.21-3.46.64-1.16.43-2.27.95-3.31 1.55l-2.81-5.34a20.58 20.58 0 015.15-2.36c1.84-.56 3.69-.83 5.53-.83 2.23 0 4.23.38 6.01 1.14a9.21 9.21 0 014.2 3.48 10.6 10.6 0 011.53 5.92V35.3h-7.57zm-7.3-7.87c0 .73.27 1.33.81 1.79.54.46 1.24.69 2.1.69a3.98 3.98 0 004.06-4.1V25c-.86-.16-1.77-.24-2.72-.24-1.21 0-2.22.21-3.03.62-.82.41-1.22 1.09-1.22 2.05zm20.05 7.87V.48h8.3V35.3h-8.3z"></path><circle cx="220" cy="30.3" r="5.6"></circle></svg>